<?xml version="1.0" standalone="no"?>
<!DOCTYPE svg PUBLIC "-//W3C//DTD SVG 20010904//EN"
 "http://www.w3.org/TR/2001/REC-SVG-20010904/DTD/svg10.dtd">
<svg version="1.0" xmlns="http://www.w3.org/2000/svg"
 width="409.000000pt" height="154.000000pt" viewBox="0 0 409.000000 154.000000"
 preserveAspectRatio="xMidYMid meet">
<metadata>
Created by potrace 1.16, written by Peter Selinger 2001-2019
</metadata>
<g transform="translate(0.000000,154.000000) scale(0.100000,-0.100000)"
fill="#000000" stroke="none">
<path d="M103 1528 c2 -7 0 -25 -4 -40 -4 -17 -3 -28 4 -31 7 -2 7 -12 -1 -34
-8 -26 -8 -33 4 -37 9 -3 12 -11 8 -17 -9 -15 -8 -92 1 -143 6 -31 5 -37 -5
-31 -10 6 -11 4 -4 -6 12 -18 12 -149 0 -149 -5 0 -3 -7 4 -15 7 -8 10 -15 7
-15 -3 0 -1 -13 4 -29 8 -22 7 -35 -4 -53 -7 -13 -12 -32 -11 -43 2 -11 6 -37
9 -57 4 -22 3 -38 -3 -38 -11 0 -9 -80 2 -99 4 -6 2 -19 -6 -28 -17 -21 -18
-62 -1 -56 8 3 13 -3 13 -17 0 -11 -4 -18 -10 -15 -5 3 -10 -1 -10 -9 0 -9 5
-16 11 -16 6 0 8 -9 3 -22 -10 -32 -7 -60 8 -69 9 -6 9 -9 1 -9 -14 0 -10 -67
5 -82 6 -6 7 -22 0 -45 -6 -21 -6 -45 0 -61 5 -15 6 -36 2 -47 -4 -11 -3 -26
2 -32 6 -7 7 -13 2 -13 -5 0 -3 -4 5 -9 9 -6 10 -13 3 -28 -6 -10 -7 -34 -3
-53 5 -24 3 -42 -6 -57 l-14 -21 175 -2 175 -1 27 41 c15 22 31 40 35 40 5 0
9 7 9 15 0 9 7 18 15 21 8 4 15 12 15 20 0 8 9 19 20 26 11 7 20 18 20 25 0 7
5 13 10 13 6 0 10 7 10 15 0 9 7 18 16 22 9 3 14 13 11 24 -3 11 -1 19 5 19 5
0 7 4 4 9 -4 5 3 7 13 4 11 -3 30 -25 43 -49 14 -27 28 -42 36 -39 7 3 28 -3
45 -12 20 -10 58 -17 101 -17 l69 -1 14 -60 c8 -33 12 -72 10 -88 l-4 -27 169
0 c155 0 168 1 168 18 0 18 18 42 31 42 4 0 6 -8 4 -17 -4 -28 15 -43 55 -43
34 0 37 2 38 30 1 34 -9 38 -33 14 -16 -16 -29 -13 -31 9 -3 31 -18 56 -37 61
-17 4 -18 7 -7 21 7 9 19 14 26 11 7 -3 15 0 18 7 3 9 8 8 15 -3 9 -13 11 -13
11 3 0 11 -8 17 -24 17 -13 0 -26 4 -28 10 -2 6 -14 4 -31 -5 -25 -13 -29 -13
-34 2 -4 9 1 21 12 29 12 9 15 19 10 31 -6 16 -9 14 -17 -9 -5 -16 -16 -28
-24 -28 -8 0 -14 -4 -14 -10 0 -5 -4 -10 -9 -10 -6 0 -8 9 -6 20 2 11 0 20 -4
20 -9 0 -24 38 -22 53 1 4 -6 10 -14 13 -26 10 -17 34 13 34 21 0 24 -2 12
-10 -20 -13 -3 -29 37 -34 39 -4 48 13 25 45 -9 13 -16 25 -14 27 7 8 0 42 -8
37 -5 -3 -10 -2 -10 4 0 5 5 13 10 16 15 9 2 25 -14 19 -8 -3 -17 -1 -21 5 -3
6 -1 11 4 11 6 0 11 9 11 20 0 11 -4 20 -10 20 -14 0 -12 37 3 43 6 3 -3 6
-22 6 -26 1 -31 4 -23 14 15 18 -12 57 -39 57 -20 0 -26 15 -9 25 15 10 12 42
-5 42 -8 0 -12 -4 -9 -9 3 -4 -6 -8 -20 -8 -16 0 -26 6 -26 15 0 8 6 15 13 15
9 0 9 2 0 8 -9 6 -7 12 7 22 23 17 25 29 8 65 -8 19 -18 25 -32 23 -18 -4 -21
1 -20 29 1 35 18 62 31 49 4 -4 3 -10 -3 -14 -5 -4 -9 -13 -8 -19 1 -7 2 -17
3 -23 0 -5 6 -10 12 -10 6 0 8 8 4 19 -3 10 -1 31 5 46 8 22 7 31 -5 45 -8 9
-15 25 -15 35 0 16 6 17 58 12 31 -4 88 -15 127 -25 58 -15 70 -22 75 -42 4
-17 15 -26 36 -31 17 -3 44 -12 61 -19 29 -13 30 -16 47 -136 27 -200 52 -258
133 -320 58 -45 152 -74 261 -81 86 -6 115 -16 75 -26 -14 -4 -14 -5 3 -6 12
0 48 11 80 25 72 32 163 47 171 28 2 -7 11 -15 19 -18 9 -3 12 -1 9 4 -3 6 -2
10 3 10 5 0 12 24 15 53 4 37 24 90 71 182 40 79 66 143 66 162 0 44 35 66 99
65 87 -2 131 -34 131 -97 0 -16 16 -92 34 -168 28 -111 45 -156 88 -234 58
-106 84 -131 143 -139 l40 -5 -30 18 c-16 10 -44 27 -60 37 -17 10 -39 30 -49
44 -22 29 -30 30 89 -12 114 -41 273 -32 380 22 82 41 148 125 199 254 44 108
69 153 94 164 9 4 40 10 67 13 45 5 52 9 68 43 37 76 35 81 -102 182 -68 50
-129 99 -135 108 -8 13 -6 25 7 48 10 17 16 39 12 49 -5 18 1 26 78 100 20 18
26 38 32 90 3 36 13 94 21 129 24 108 29 102 -84 102 l-99 0 -12 -137 c-7 -76
-17 -158 -22 -183 -7 -34 -29 -230 -29 -256 0 -2 -9 -4 -20 -4 -12 0 -24 9
-29 23 -14 35 -47 60 -70 52 -23 -7 -28 -31 -8 -38 27 -10 -2 -17 -46 -11 -33
5 -47 12 -50 25 -3 12 0 19 9 19 8 0 14 4 14 9 0 13 -34 23 -53 16 -8 -4 -18
-2 -22 4 -9 16 -25 13 -25 -4 0 -7 7 -18 16 -23 14 -8 13 -10 -5 -15 -11 -3
-21 -1 -21 4 0 5 -7 9 -15 9 -8 0 -15 5 -15 11 0 5 -4 7 -10 4 -5 -3 -10 -1
-10 5 0 6 -4 9 -9 6 -5 -3 -22 1 -37 9 -40 21 -52 19 -92 -12 -26 -20 -34 -22
-29 -10 5 14 3 16 -12 8 -34 -18 -43 -38 -31 -61 6 -12 10 -23 8 -24 -41 -25
-117 -50 -149 -47 -28 2 -41 -2 -45 -13 -9 -23 -59 -20 -75 4 -11 15 -30 22
-77 27 -55 5 -66 10 -92 40 -17 18 -30 40 -30 48 0 9 -11 25 -25 37 -14 12
-25 27 -25 34 0 43 -165 79 -363 79 -98 0 -140 -4 -145 -12 -5 -7 -24 -15 -42
-19 l-35 -6 25 22 c20 17 21 19 4 11 -11 -5 -42 -11 -67 -12 -46 -3 -60 -12
-34 -22 6 -3 -3 -3 -20 0 -19 3 -39 0 -47 -6 -10 -8 -16 -9 -21 -1 -3 5 -1 10
4 10 6 0 11 7 11 15 0 21 -46 19 -62 -3 -10 -13 -26 -17 -68 -16 -56 2 -130
27 -130 44 0 6 -6 10 -14 10 -8 0 -13 10 -13 23 0 22 -15 45 -52 83 -7 8 -11
26 -8 40 3 18 1 24 -9 20 -11 -4 -11 -2 -1 14 6 11 15 20 19 20 5 0 8 7 8 15
0 8 5 15 10 15 6 0 10 -5 10 -12 0 -6 2 -9 5 -6 10 9 -7 38 -22 38 -10 0 -12
6 -8 21 5 16 3 20 -12 17 -12 -2 -18 3 -17 15 1 9 -2 17 -8 17 -5 0 -7 4 -4 9
11 17 -80 21 -577 21 -403 0 -508 -3 -504 -12z m482 -319 c27 -24 33 -35 25
-45 -8 -9 -7 -19 5 -38 9 -14 14 -30 10 -36 -4 -6 6 -27 21 -47 19 -26 28 -49
29 -76 l0 -38 43 6 c31 5 49 2 60 -8 26 -22 65 -28 86 -12 17 13 21 12 37 -9
21 -26 27 -92 8 -80 -6 3 -15 1 -19 -5 -4 -8 -19 0 -43 26 l-37 37 -58 -21
c-40 -14 -64 -18 -75 -12 -24 14 -55 -6 -64 -42 -8 -30 -30 -38 -26 -9 2 8 3
34 4 58 1 23 6 42 12 42 7 0 7 4 -1 12 -13 13 -15 72 -3 103 5 13 3 25 -6 34
-13 12 -13 15 2 23 14 9 13 13 -10 36 -28 28 -77 37 -108 20 -32 -17 -47 -71
-47 -168 0 -89 -14 -122 -24 -57 -23 143 -22 174 5 236 43 100 109 127 174 70z
m2674 -310 c28 -10 31 -15 31 -53 0 -59 14 -73 88 -80 l62 -6 1 28 c0 24 1 25
9 7 11 -26 11 -109 1 -160 -5 -22 -14 -67 -21 -99 -13 -64 -40 -106 -122 -187
-49 -47 -95 -74 -158 -92 -44 -12 -78 -12 -158 2 -161 28 -243 125 -263 313
-12 120 -5 166 28 179 32 12 43 11 43 -1 0 -13 51 -59 65 -60 6 0 28 -9 50
-20 60 -30 101 -26 141 14 19 19 34 44 34 56 0 38 33 19 52 -30 9 -25 17 -41
17 -36 1 5 7 4 14 -2 10 -9 17 -7 29 7 9 10 22 21 29 23 11 4 10 13 -6 42 -44
86 -121 112 -292 103 -57 -3 -103 -3 -103 1 0 4 12 8 28 9 15 1 56 8 92 17 39
10 81 14 105 10 36 -6 38 -5 26 10 -12 15 -6 16 66 16 44 0 94 -5 112 -11z
m-1211 -90 c41 -50 60 -67 79 -73 20 -6 29 -30 39 -96 2 -14 8 -47 13 -75 9
-47 8 -52 -21 -89 -24 -29 -26 -36 -10 -27 29 16 105 108 136 166 15 28 24 41
20 30 -3 -11 -10 -35 -14 -54 -10 -38 -98 -134 -145 -157 -16 -8 -52 -26 -78
-39 -33 -18 -76 -28 -138 -35 l-90 -9 -77 35 c-92 42 -107 55 -140 119 -20 39
-26 70 -30 143 -3 65 -1 92 7 92 10 0 12 -6 15 -50 2 -32 36 -57 36 -27 0 8 7
14 15 14 8 0 14 -7 13 -15 -2 -8 3 -17 10 -19 6 -3 12 0 12 6 0 6 9 11 21 11
15 0 19 -4 14 -19 -3 -11 0 -23 6 -27 9 -5 10 -2 6 9 -4 11 -1 17 9 17 11 0
13 -6 9 -19 -4 -15 1 -21 26 -30 39 -14 54 -14 102 0 46 12 40 29 -11 29 -52
0 -71 14 -54 40 17 27 15 38 -8 50 -14 8 -26 8 -40 0 -18 -10 -26 -6 -56 24
-34 34 -38 64 -7 52 9 -4 21 1 28 11 11 15 14 14 28 -13 22 -42 37 -52 86 -59
56 -7 105 22 123 71 14 39 39 45 66 13z m-1183 -93 c11 -37 25 -39 25 -4 0 21
4 22 31 7 14 -7 18 -16 14 -30 -4 -11 -2 -26 4 -33 10 -12 12 -53 10 -244 0
-62 -4 -81 -12 -74 -7 5 -25 9 -42 8 -40 -2 -66 11 -59 29 6 15 -16 21 -29 9
-9 -10 4 -34 19 -34 18 0 18 -8 0 -26 -10 -10 -17 -11 -22 -3 -5 8 -9 8 -14
-1 -4 -6 -5 10 -3 37 l5 49 -36 -4 c-37 -4 -42 3 -36 48 2 19 30 41 42 34 5
-3 21 -7 35 -9 32 -3 44 -22 36 -55 -5 -22 -4 -23 9 -12 12 10 21 10 42 1 56
-26 66 35 15 90 -11 12 -27 38 -36 59 -8 20 -27 47 -41 58 -33 27 -37 91 -8
123 26 28 39 22 51 -23z"/>
<path d="M3264 616 c-22 -46 -51 -48 -66 -5 -17 49 -29 20 -32 -77 l-3 -90 33
4 c29 4 37 11 55 51 23 52 44 139 35 148 -3 3 -13 -11 -22 -31z"/>
<path d="M3951 1518 c1 -13 -1 -30 -4 -38 -10 -26 -13 -90 -4 -90 4 0 5 -6 0
-12 -4 -7 -8 -35 -9 -63 -1 -77 -16 -279 -21 -287 -2 -5 1 -8 7 -8 8 0 8 -6 0
-21 -9 -15 -8 -24 1 -35 7 -9 8 -18 2 -26 -12 -16 -16 -101 -4 -94 4 3 8 -8 7
-23 -1 -16 -5 -27 -9 -24 -4 2 -5 -6 -2 -19 7 -29 7 -56 2 -190 -3 -64 -1
-108 4 -108 6 0 5 -8 -1 -20 -6 -11 -7 -20 -2 -20 11 0 3 -48 -9 -56 -13 -8
-11 -94 2 -94 5 0 7 -5 3 -12 -14 -22 -20 -223 -8 -260 5 -15 18 -18 95 -18
l89 0 0 770 0 770 -71 0 c-67 0 -70 -1 -68 -22z"/>
<path d="M2260 261 c0 -3 -11 -11 -24 -17 -20 -9 -23 -9 -19 2 3 8 0 14 -5 14
-6 0 -14 -10 -17 -22 -4 -13 -25 -44 -46 -70 -21 -25 -43 -57 -48 -70 -5 -13
-16 -40 -25 -60 l-16 -38 77 0 c46 0 73 4 65 9 -17 10 -23 76 -8 96 10 13 15
12 45 -6 31 -19 33 -23 28 -60 -5 -38 -4 -39 24 -39 26 0 29 3 29 35 0 28 4
35 19 35 28 0 30 8 15 79 -7 35 -11 69 -7 74 4 7 -1 8 -12 4 -14 -6 -16 -3
-12 13 3 11 1 18 -4 14 -5 -3 -9 -1 -9 4 0 5 -11 10 -25 10 -14 0 -25 -3 -25
-7z"/>
</g>
</svg>
